<?xml version="1.0" encoding="UTF-8" standalone="no"?>
<svg
   class="icon icon-tabler icon-tabler-route-2"
   width="24"
   height="24"
   viewBox="0 0 24 24"
   stroke-width="2"
   stroke="currentColor"
   fill="none"
   stroke-linecap="round"
   stroke-linejoin="round"
   version="1.1"
   id="svg24"
   sodipodi:docname="logo.svg"
   xml:space="preserve"
   inkscape:version="1.2.1 (9c6d41e410, 2022-07-14)"
   xmlns:inkscape="http://www.inkscape.org/namespaces/inkscape"
   xmlns:sodipodi="http://sodipodi.sourceforge.net/DTD/sodipodi-0.dtd"
   xmlns="http://www.w3.org/2000/svg"
   xmlns:svg="http://www.w3.org/2000/svg"><defs
     id="defs28" /><sodipodi:namedview
     id="namedview26"
     pagecolor="#ffffff"
     bordercolor="#000000"
     borderopacity="0.25"
     inkscape:showpageshadow="2"
     inkscape:pageopacity="0.0"
     inkscape:pagecheckerboard="0"
     inkscape:deskcolor="#d1d1d1"
     showgrid="false"
     inkscape:zoom="29.521708"
     inkscape:cx="1.9477193"
     inkscape:cy="11.483075"
     inkscape:window-width="2560"
     inkscape:window-height="1369"
     inkscape:window-x="2552"
     inkscape:window-y="-8"
     inkscape:window-maximized="1"
     inkscape:current-layer="svg24" /><path
     stroke="none"
     d="M 0,0 H 24 V 24 H 0 Z"
     fill="none"
     id="path16"
     style="display:none" /><path
     d="M3 19a2 2 0 1 0 4 0a2 2 0 0 0 -4 0"
     id="path18"
     style="stroke:#74b816;stroke-opacity:1" /><path
     d="M19 7a2 2 0 1 0 0 -4a2 2 0 0 0 0 4z"
     id="path20"
     style="stroke:#74b816;stroke-opacity:1" /><path
     d="M14 5a2 2 0 0 0 -2 2v10a2 2 0 0 1 -2 2"
     id="path22"
     style="stroke:#74b816;stroke-opacity:1" /><g
     style="fill:none;stroke:currentColor;stroke-width:2;stroke-linecap:round;stroke-linejoin:round"
     id="g99"
     transform="matrix(-1,0,0,1,24.047904,-0.04790462)"><path
       stroke="none"
       d="M 0,0 H 24 V 24 H 0 Z"
       fill="none"
       id="path78"
       style="display:none;stroke:#000000;stroke-opacity:1" /><path
       d="m 3,21 v -4 a 4,4 0 1 1 4,4 H 3"
       id="path80"
       style="stroke:#4299e1;stroke-opacity:1" /><path
       d="M 21,3 A 16,16 0 0 0 8.2,13.2"
       id="path82"
       style="stroke:#4299e1;stroke-opacity:1" /><path
       d="M 21,3 A 16,16 0 0 1 10.8,15.8"
       id="path84"
       style="stroke:#4299e1;stroke-opacity:1" /><path
       d="M 10.6,9 A 9,9 0 0 1 15,13.4"
       id="path86"
       style="stroke:#4299e1;stroke-opacity:1" /></g></svg>
